PathFileType	4	(X/Y/Z)	E:\Qualisys_Data\Carbon_Farble_Plate\Data\Amateur_Runner\S14\T2\S14T2V21_c3d.trc
DataRate	CameraRate	NumFrames	NumMarkers	Units	OrigDataRate	OrigDataStartFrame	OrigNumFrames
200.000000	200.000000	5	39	mm	200.000000	151	303
Frame#	Time	LSHO			RSHO			LICST			RICST			LASIS			LHEEL			RASIS			LTROC			RTROC			SACR			LTH1			LSK4			LTH2			LTH3			RHM5			LSK2			LTH4			RTH1			LTOE			RTH2			RTH3			RTH4			LLEP			RLEP			LSK1			LSK3			RSK1			LHM5			RSK2			LFT1			RSK3			RSK4			LLME			RLME			RTOE			RHEEL			RFT1			RFT2			LFT2			
		X1	Y1	Z1	X2	Y2	Z2	X3	Y3	Z3	X4	Y4	Z4	X5	Y5	Z5	X6	Y6	Z6	X7	Y7	Z7	X8	Y8	Z8	X9	Y9	Z9	X10	Y10	Z10	X11	Y11	Z11	X12	Y12	Z12	X13	Y13	Z13	X14	Y14	Z14	X15	Y15	Z15	X16	Y16	Z16	X17	Y17	Z17	X18	Y18	Z18	X19	Y19	Z19	X20	Y20	Z20	X21	Y21	Z21	X22	Y22	Z22	X23	Y23	Z23	X24	Y24	Z24	X25	Y25	Z25	X26	Y26	Z26	X27	Y27	Z27	X28	Y28	Z28	X29	Y29	Z29	X30	Y30	Z30	X31	Y31	Z31	X32	Y32	Z32	X33	Y33	Z33	X34	Y34	Z34	X35	Y35	Z35	X36	Y36	Z36	X37	Y37	Z37	X38	Y38	Z38	X39	Y39	Z39	

152	0.755	368.4844360351562	1437.749633789062	-495.5528564453125	303.1141662597656	1437.404541015625	-212.7987518310547	311.9874267578125	987.9439697265624	-500.9163208007812	317.1620483398438	987.565673828125	-225.4786071777344	347.7235412597656	935.1936645507812	-477.8929443359375	-258.7029113769531	467.7705383300781	-389.5165710449219	344.7303771972656	946.604736328125	-247.3893432617188	202.5115509033203	883.3404541015625	-529.2212524414062	217.1595306396484	862.0059204101562	-194.7865600585938	176.5919494628906	991.7327880859376	-374.41796875	208.3484802246094	646.8076171875	-531.1929321289062	-86.74317932128906	499.8423767089844	-483.54296875	133.5596008300781	667.553955078125	-508.2692565917969	188.5261383056641	549.6585083007812	-515.9119262695312	623.7394409179688	101.7886581420898	-228.2972106933594	7.244442462921143	523.535888671875	-507.4188232421875	113.0103225708008	572.2490844726562	-494.9762573242188	414.5307312011719	691.71923828125	-197.0328979492188	-298.6542053222656	220.8475036621094	-449.4761352539062	342.6257019042969	660.8502807617188	-191.4229431152344	455.7352905273438	605.9537963867188	-232.3645477294922	379.1642456054688	570.2046508789062	-219.2259063720703	115.9355010986328	507.7353820800781	-511.7787780761719	431.6741027832031	518.01513671875	-226.0228729248047	27.3337230682373	443.2071533203125	-509.5185546875	-70.37364196777344	421.2587890625	-490.56396484375	472.9957275390625	400.0476684570312	-225.6125183105469	-320.0491027832031	298.7130432128906	-496.4086303710938	388.9833984375	381.9635925292969	-228.9548492431641	-284.8820190429688	457.1880798339844	-364.1719055175781	489.7467651367188	298.9149169921875	-239.9491729736328	411.8848266601562	288.4865417480469	-243.4104614257812	-244.0955810546875	424.3302612304688	-461.1033630371094	487.5199890136719	117.409423828125	-264.9649963378906	692.75146484375	155.5410308837891	-276.7203063964844	448.6086730957031	71.90926361083984	-325.7632446289062	477.2241516113281	54.15784072875977	-354.3445434570312	459.4011840820312	43.05719757080078	-302.0277404785156	-293.7197570800781	474.5010375976562	-415.5276489257812
153	0.76	387.6279296875	1433.438110351562	-494.8377380371094	323.2305908203125	1432.712768554688	-211.5306549072266	330.802734375	983.795166015625	-500.928466796875	335.6299438476562	983.6384887695312	-225.2450866699219	366.6910095214844	931.577880859375	-477.8721923828125	-230.8870086669922	474.6050720214844	-389.71728515625	363.3861694335938	943.3572998046876	-246.72998046875	222.2902221679688	878.0361328125	-529.793212890625	235.4081420898438	857.760498046875	-195.7000122070312	195.576171875	987.4127807617188	-374.8321228027344	232.5064849853516	641.3660278320312	-531.5232543945312	-59.07257080078125	499.2231750488281	-485.2857055664062	157.3397674560547	660.5946655273438	-509.3380737304688	214.5604400634766	544.0916137695312	-516.883056640625	636.49462890625	95.27873992919922	-231.0705413818359	35.57053756713867	519.849609375	-509.146240234375	138.2515869140625	564.4795532226562	-495.8489074707031	435.1081848144531	688.4700927734375	-196.9679565429688	-277.8204956054688	227.7614288330078	-447.5603332519531	362.6049194335938	658.0630493164062	-193.5763092041016	475.1890258789062	602.4691162109375	-232.888916015625	399.5693969726562	567.7442626953125	-221.3276977539062	143.4545745849609	501.2804870605469	-514.1402587890625	451.534912109375	515.2542114257812	-227.4803771972656	53.18881607055664	438.9623107910156	-510.0417175292969	-45.0835075378418	419.6990966796875	-490.5318908691406	491.2806701660156	395.7746887207031	-226.2954864501953	-297.5943603515625	306.2225341796875	-495.0733947753906	407.1488342285156	378.931640625	-229.4009399414062	-257.6396179199219	464.5894165039062	-364.18896484375	505.928466796875	294.1188659667969	-241.0795593261719	427.6109924316406	285.5368957519531	-243.1532440185547	-217.4925537109375	429.9093627929688	-460.9800720214844	499.8198852539062	113.0048370361328	-265.7332458496094	705.1178588867188	148.36865234375	-280.9208068847656	459.2432861328125	68.66878509521484	-326.2232360839844	486.9404907226562	49.88396835327148	-355.1295471191406	469.6484985351562	40.30387878417969	-302.4705810546875	-266.5296630859375	481.6305847167969	-415.8473205566406
154	0.765	406.3567199707031	1429.47265625	-494.2281188964844	343.3427734375	1427.603759765625	-210.4315338134766	349.11474609375	979.562255859375	-501.1950073242188	353.9601745605469	980.1971435546876	-224.2173156738281	385.6643371582031	927.5682373046876	-477.6893615722656	-202.2381439208984	480.8062744140625	-389.0018920898438	382.3198852539062	940.2546997070312	-245.7283782958984	241.8700103759766	872.162841796875	-530.1123046875	253.5016632080078	853.4669189453125	-196.4934692382812	214.20703125	982.5089721679688	-375.2655334472656	256.4449768066406	635.4668579101562	-532.1710815429688	-30.935791015625	498.3878479003906	-486.9002990722656	180.8588562011719	652.5999145507812	-509.8329467773438	240.4563293457031	537.8311157226562	-517.7033081054688	647.2965698242188	87.80310821533203	-235.0081787109375	64.15218353271484	515.9318237304688	-510.6105041503906	164.0987854003906	556.9176025390625	-496.86328125	455.6723022460938	685.156005859375	-196.9551849365234	-255.8211975097656	234.7086639404297	-445.65185546875	383.0610046386719	655.5652465820312	-195.9240417480469	495.6554870605469	598.90966796875	-232.9232330322266	420.0496520996094	563.8716430664062	-221.1624908447266	170.0479278564453	495.8338623046875	-515.047607421875	470.862060546875	511.6627502441406	-227.9382476806641	79.38529968261719	434.9976196289062	-510.8421936035156	-18.8534984588623	418.491943359375	-490.2734985351562	508.9897766113281	390.5354919433594	-227.3816375732422	-274.0775146484375	312.9556579589844	-493.9744262695312	424.7679443359375	375.4865112304688	-229.2642974853516	-229.1470947265625	472.1912536621094	-362.6961669921875	521.1974487304688	289.06396484375	-241.9847412109375	442.6398010253906	282.0691528320312	-242.8396606445312	-192.9629364013672	434.9524536132812	-461.0955200195312	511.1972045898438	109.4035415649414	-266.6982116699219	717.5452880859375	138.2736206054688	-285.9109191894531	468.4858703613281	68.8445053100586	-326.5372924804688	494.1885375976562	47.75615692138672	-355.6503295898438	475.4718933105469	40.54341888427734	-302.0362243652344	-238.2035827636719	488.4259643554688	-416.1122436523438
155	0.77	425.3110961914062	1424.908935546875	-493.4175109863281	363.8533630371094	1422.236206054688	-209.1620788574219	367.5932006835938	974.9778442382812	-501.2086181640625	372.3309631347656	976.5415649414062	-223.8265228271484	404.5879821777344	923.171142578125	-477.4801330566406	-173.5059814453125	486.4906616210938	-388.3981628417969	400.8601989746094	936.981201171875	-244.7940216064453	261.4761352539062	866.3382568359375	-530.5050048828125	271.4669799804688	848.9064331054688	-197.6310729980469	232.9735260009766	977.5192260742188	-376.0049743652344	280.6390075683594	629.5831298828125	-532.8582153320312	-2.211544275283813	497.2586364746094	-488.1193237304688	204.1033020019531	645.3681030273438	-510.3921508789062	266.6776123046875	531.06787109375	-518.5062255859375	655.8217163085938	79.00406646728516	-238.5099182128906	93.0111083984375	511.7007141113281	-512.15087890625	190.1044769287109	549.1033935546875	-497.4708557128906	476.1369934082031	680.4891967773438	-197.2384948730469	-232.9322357177734	240.9979095458984	-443.8416137695312	403.4522094726562	652.9113159179688	-197.3207855224609	515.4204711914062	594.468505859375	-233.5383605957031	439.2574462890625	560.9219360351562	-222.1475524902344	198.4686889648438	488.2328796386719	-516.0404663085938	489.5146789550781	507.1002807617188	-228.4590911865234	106.5684509277344	430.2302551269531	-511.6989440917969	7.441746711730957	416.8079223632812	-490.2240905761719	526.338134765625	385.3457641601562	-228.4008026123047	-249.5318756103516	319.6882019042969	-492.9356079101562	441.7314758300781	371.9541320800781	-228.9955749511719	-200.654541015625	478.3746643066406	-362.8286743164062	536.3765869140625	283.5037841796875	-243.4670104980469	457.7696228027344	277.9740905761719	-243.3795623779297	-165.4693450927734	439.2997741699219	-460.6910095214844	522.4292602539062	104.679069519043	-267.61474609375	728.5852661132812	124.9509429931641	-290.8198547363281	477.2181701660156	69.82894897460938	-328.0727844238281	499.3898010253906	46.14650344848633	-356.3817443847656	482.4922180175781	41.88973236083984	-302.4061279296875	-209.2389678955078	494.6476135253906	-416.1753234863281
156	0.775	443.7777709960938	1420.16748046875	-492.7318420410156	384.6415710449219	1416.448364257812	-207.7255859375	386.3835754394531	970.3693237304688	-501.18017578125	390.0087890625	972.116943359375	-223.3075408935547	423.4459838867188	918.9622192382812	-477.093017578125	-144.0153503417969	491.7728881835938	-388.8201293945312	419.5005798339844	933.4940795898438	-243.8842620849609	281.3573303222656	860.078125	-530.5465087890625	289.9607849121094	844.1414794921875	-198.1717529296875	251.5405883789062	972.046142578125	-376.5437622070312	304.8009033203125	623.5714111328125	-533.6586303710938	27.12650680541992	496.0604553222656	-489.9071655273438	228.0575866699219	637.5125732421875	-510.6815795898438	293.3005065917969	525.0135498046875	-520.0043334960938	663.1347045898438	67.85419464111328	-242.2869873046875	122.4740447998047	507.5372009277344	-514.1967163085938	215.8596343994141	540.7607421875	-498.10009765625	495.7100524902344	675.72216796875	-197.6399536132812	-208.7756500244141	247.0129699707031	-442.4519348144531	423.6134643554688	649.59814453125	-197.377197265625	535.0305786132812	589.6170654296875	-233.9381561279297	458.3078308105469	557.3297119140625	-222.1552581787109	226.7241821289062	481.8949584960938	-517.973388671875	507.8844299316406	501.8027648925781	-228.6865081787109	134.20947265625	425.5070190429688	-512.5079956054688	34.73575210571289	414.7761535644531	-490.5352478027344	543.8076171875	380.3109130859375	-229.6737060546875	-223.9214935302734	325.5047912597656	-491.4579772949219	458.8937072753906	368.3098449707031	-228.4983062744141	-171.0532073974609	484.1932067871094	-362.7892456054688	551.4931640625	278.4118041992188	-244.8650360107422	472.6686096191406	273.7349243164062	-243.2776336669922	-137.2885589599609	443.3485412597656	-460.7689514160156	531.8054809570312	100.1239242553711	-268.5882568359375	738.0506591796875	108.9331665039062	-295.2101440429688	483.7936706542969	70.95811462402344	-329.1601257324219	504.1312255859375	45.29751205444336	-356.9244995117188	486.9661560058594	42.46998977661133	-302.6883239746094	-179.6050872802734	500.3855590820312	-416.8936767578125
